<?xml version="1.0" encoding="UTF-8" standalone="no"?>
<!-- Created with Inkscape (http://www.inkscape.org/) -->

<svg
   width="32"
   height="32"
   viewBox="0 0 8.4666667 8.4666667"
   version="1.1"
   id="svg5"
   inkscape:version="1.1 (c68e22c387, 2021-05-23)"
   sodipodi:docname="default_sundries.svg"
   xmlns:inkscape="http://www.inkscape.org/namespaces/inkscape"
   xmlns:sodipodi="http://sodipodi.sourceforge.net/DTD/sodipodi-0.dtd"
   xmlns="http://www.w3.org/2000/svg"
   xmlns:svg="http://www.w3.org/2000/svg">
  <sodipodi:namedview
     id="namedview7"
     pagecolor="#ffffff"
     bordercolor="#666666"
     borderopacity="1.0"
     inkscape:pageshadow="2"
     inkscape:pageopacity="0.0"
     inkscape:pagecheckerboard="0"
     inkscape:document-units="mm"
     showgrid="false"
     units="px"
     inkscape:zoom="35.155032"
     inkscape:cx="13.326684"
     inkscape:cy="21.00695"
     inkscape:window-width="1848"
     inkscape:window-height="1057"
     inkscape:window-x="-8"
     inkscape:window-y="-8"
     inkscape:window-maximized="1"
     inkscape:current-layer="layer1" />
  <defs
     id="defs2" />
  <g
     inkscape:label="Layer 1"
     inkscape:groupmode="layer"
     id="layer1">
    <path
       id="path3975"
       style="fill:#000000;fill-opacity:0.4;stroke:#ffffff;stroke-width:0.2966px;stroke-linecap:butt;stroke-linejoin:miter;stroke-opacity:1"
       d="M 1.6170707,0.48248114 C 1.4516738,0.48093031 1.2935256,0.52581782 1.1644353,0.63127506 0.82019454,0.91249456 0.47607381,1.1938917 0.73425435,1.623992 0.99243489,2.0540923 1.4742657,2.3622687 1.9217786,3.1066732 2.0460118,3.3133258 2.279642,3.6630859 2.4022598,3.8686123 v 0 C 0.7499043,5.2416249 0.51048305,6.2228751 0.87193588,7.149245 1.2333886,8.0756149 2.386542,8.108877 3.4364761,8.1419617 4.4864101,8.1750467 6.8100468,8.1418704 7.4641042,7.000451 8.1181617,5.8590307 7.9458416,5.0318047 6.5688789,4.0558076 5.1919159,3.0798103 3.8643727,3.2115148 3.1705671,3.3691979 v 0 C 2.59139,2.4896399 2.2137228,1.8753941 2.2487513,1.6734007 2.3003872,1.3756389 2.7478099,1.1278802 2.4035692,0.81357606 2.1884187,0.61713601 1.8927322,0.48506588 1.6170707,0.48248114 Z"
       sodipodi:nodetypes="ssssccssssccsss" />
  </g>
</svg>
