<?xml version="1.0" encoding="UTF-8" standalone="no"?>
<!-- Created with Inkscape (http://www.inkscape.org/) -->

<svg
   width="256"
   height="128"
   viewBox="0 0 67.733332 33.866668"
   version="1.1"
   id="svg5"
   sodipodi:docname="wep_pistol.svg"
   inkscape:version="1.1 (c68e22c387, 2021-05-23)"
   xmlns:inkscape="http://www.inkscape.org/namespaces/inkscape"
   xmlns:sodipodi="http://sodipodi.sourceforge.net/DTD/sodipodi-0.dtd"
   xmlns="http://www.w3.org/2000/svg"
   xmlns:svg="http://www.w3.org/2000/svg">
  <sodipodi:namedview
     id="namedview7"
     pagecolor="#ffffff"
     bordercolor="#666666"
     borderopacity="1.0"
     inkscape:pageshadow="2"
     inkscape:pageopacity="0.0"
     inkscape:pagecheckerboard="0"
     inkscape:document-units="px"
     showgrid="false"
     units="px"
     inkscape:zoom="3.6203867"
     inkscape:cx="131.89199"
     inkscape:cy="87.421601"
     inkscape:window-width="1848"
     inkscape:window-height="1057"
     inkscape:window-x="3832"
     inkscape:window-y="1072"
     inkscape:window-maximized="1"
     inkscape:current-layer="layer1" />
  <defs
     id="defs2" />
  <g
     inkscape:label="Layer 1"
     inkscape:groupmode="layer"
     id="layer1">
    <path
       style="fill:none;stroke:#000000;stroke-width:0.264583px;stroke-linecap:butt;stroke-linejoin:miter;stroke-opacity:1"
       d="m 1.6536458,6.3045247 0.051676,5.0126143 H 27.801922 c 0,0 2.969018,0.140969 3.96341,0.79082 1.081455,0.706747 1.979377,1.276237 1.979377,2.413118 0,1.136882 0.46509,8.474935 0.46509,8.474935 H 44.33838 v -1.188558 l 5.774682,0 c 0,0 2.337766,-0.07015 2.822143,-0.441086 1.37653,-1.430649 1.686783,-1.367589 1.686783,-1.367589 0,0 1.206145,1.808707 2.321766,4.839852 1.808676,4.909262 3.776054,6.890699 3.776054,6.890699 4.392496,0.155028 5.78776,-1.240234 5.78776,-1.240234 0.675465,-1.475693 -0.693107,-3.260718 -2.428793,-5.581056 -1.963703,-2.583822 -7.493082,-8.164876 -7.493082,-8.164876 v -2.945557 h 1.395265 V 8.6299642 H 56.585693 V 6.821289 h -4.909261 c 0,0 -0.597192,1.299256 -1.217309,1.6609908 -0.620117,0.3617352 -5.862362,0.3543901 -5.862362,0.3543901 H 4.3924968 l -0.72347,-0.051677 C 2.5838216,6.9763184 1.6536458,6.3045247 1.6536458,6.3045247 Z"
       id="path1279"
       sodipodi:nodetypes="cccsscccccccccccccccccscccc" />
    <path
       style="fill:#ffffff;stroke:#000000;stroke-width:0.26458334;stroke-linecap:butt;stroke-linejoin:miter;stroke-opacity:1;fill-opacity:0.44863018;stroke-miterlimit:4;stroke-dasharray:none"
       d="m 1.6536458,6.3045247 0.051676,5.0126143 H 27.801922 c 0,0 2.969018,0.140969 3.96341,0.79082 1.081455,0.706747 1.979377,1.276237 1.979377,2.413118 0,1.136882 0.46509,8.474935 0.46509,8.474935 H 44.33838 v -1.188558 l 5.774682,0 c 0,0 2.337766,-0.07015 2.822143,-0.441086 1.37653,-1.430649 1.686783,-1.367589 1.686783,-1.367589 0,0 1.206145,1.808707 2.321766,4.839852 1.808676,4.909262 3.776054,6.890699 3.776054,6.890699 4.392496,0.155028 5.78776,-1.240234 5.78776,-1.240234 0.675465,-1.475693 -0.693107,-3.260718 -2.428793,-5.581056 -1.963703,-2.583822 -7.493082,-8.164876 -7.493082,-8.164876 v -2.945557 h 1.395265 V 8.6299642 H 56.585693 V 6.821289 h -4.909261 c 0,0 -0.597192,1.299256 -1.217309,1.6609908 -0.620117,0.3617352 -5.862362,0.3543901 -5.862362,0.3543901 H 4.3924968 l -0.72347,-0.051677 C 2.5838216,6.9763184 1.6536458,6.3045247 1.6536458,6.3045247 Z"
       id="path4124"
       sodipodi:nodetypes="cccsscccccccccccccccccscccc" />
  </g>
</svg>
