<?xml version="1.0" encoding="UTF-8" standalone="no"?>
<!-- Created with Inkscape (http://www.inkscape.org/) -->

<svg
   width="256"
   height="128"
   viewBox="0 0 67.733332 33.866668"
   version="1.1"
   id="svg5"
   sodipodi:docname="wep_wave_shot.svg"
   inkscape:version="1.1 (c68e22c387, 2021-05-23)"
   xmlns:inkscape="http://www.inkscape.org/namespaces/inkscape"
   xmlns:sodipodi="http://sodipodi.sourceforge.net/DTD/sodipodi-0.dtd"
   xmlns="http://www.w3.org/2000/svg"
   xmlns:svg="http://www.w3.org/2000/svg">
  <sodipodi:namedview
     id="namedview7"
     pagecolor="#ffffff"
     bordercolor="#666666"
     borderopacity="1.0"
     inkscape:pageshadow="2"
     inkscape:pageopacity="0.0"
     inkscape:pagecheckerboard="0"
     inkscape:document-units="mm"
     showgrid="false"
     units="px"
     inkscape:zoom="3.6203867"
     inkscape:cx="144.87403"
     inkscape:cy="82.72597"
     inkscape:window-width="1848"
     inkscape:window-height="1057"
     inkscape:window-x="3904"
     inkscape:window-y="1058"
     inkscape:window-maximized="1"
     inkscape:current-layer="layer1" />
  <defs
     id="defs2" />
  <g
     inkscape:label="Layer 1"
     inkscape:groupmode="layer"
     id="layer1">
    <path
       style="fill:#ffffff;fill-opacity:0.44863;stroke:#000000;stroke-width:0.26458333;stroke-linecap:butt;stroke-linejoin:miter;stroke-opacity:1;stroke-miterlimit:4;stroke-dasharray:none"
       d="m 21.26429,3.6799387 c 0.165503,11.6403623 0.05517,13.3505593 0.717179,14.4539113 0.662012,1.103351 2.923882,3.310055 2.923882,3.310055 h 9.378493 v 1.986034 h 1.489526 l 2.234286,-2.234287 h 3.999652 c 0,0 0.220671,0.689595 1.048185,0.689595 0.827515,0 1.158519,0.05517 2.592878,-0.331006 1.434356,-0.386174 1.765364,-0.441341 1.765364,-0.441341 0,0 -0.882682,0.05517 -1.213689,1.213687 -0.331005,1.158519 -0.303421,2.027409 0.896472,3.144554 0.866928,0.80714 2.781343,1.147341 3.861732,0.868889 1.337815,-0.344797 2.289457,-1.696403 2.234289,-3.020426 -0.05517,-1.324022 -1.420566,-2.813548 -1.696404,-2.868715 -0.275837,-0.05517 0.772348,-0.717179 0.772348,-0.717179 0,0 4.082401,3.420391 4.578908,6.178772 0.496511,2.758379 1.048186,5.571928 0.827516,6.178772 -0.220671,0.606842 -1.103353,1.103352 -1.103353,1.103352 l 9.378494,-0.937852 c 0,0 -0.441341,-6.17877 -3.420392,-9.654329 -2.979049,-3.475559 -6.785616,-6.123603 -6.785616,-6.123603 0,0 1.765363,-2.75838 3.254889,-4.854749 1.489526,-2.0963686 4.027234,-5.0202517 4.027234,-5.0202517 0,0 -0.331005,-1.2688545 -1.986034,-2.5377095 -1.655026,-1.2688547 -8.109635,-2.9790504 -12.688547,-2.9238829 -4.578911,0.055168 -12.743716,0.9378493 -14.784916,1.544693 -2.041201,0.6068435 -2.09637,2.206704 -2.09637,2.206704 h -4.13757 L 26.119039,3.6799387 Z"
       id="path1199"
       sodipodi:nodetypes="csccccccsscssssscssccscscssscccc" />
  </g>
</svg>
