<?xml version="1.0" encoding="UTF-8" standalone="no"?>
<!-- Created with Inkscape (http://www.inkscape.org/) -->

<svg
   width="128"
   height="128"
   viewBox="0 0 33.866666 33.866666"
   version="1.1"
   id="svg826"
   inkscape:version="1.1 (c68e22c387, 2021-05-23)"
   sodipodi:docname="wep_time_gun.svg"
   xmlns:inkscape="http://www.inkscape.org/namespaces/inkscape"
   xmlns:sodipodi="http://sodipodi.sourceforge.net/DTD/sodipodi-0.dtd"
   xmlns="http://www.w3.org/2000/svg"
   xmlns:svg="http://www.w3.org/2000/svg">
  <sodipodi:namedview
     id="namedview828"
     pagecolor="#ffffff"
     bordercolor="#666666"
     borderopacity="1.0"
     inkscape:pageshadow="2"
     inkscape:pageopacity="0.0"
     inkscape:pagecheckerboard="0"
     inkscape:document-units="px"
     showgrid="false"
     units="px"
     inkscape:zoom="2.4609082"
     inkscape:cx="44.454693"
     inkscape:cy="64.841649"
     inkscape:window-width="1848"
     inkscape:window-height="1057"
     inkscape:window-x="3832"
     inkscape:window-y="1072"
     inkscape:window-maximized="1"
     inkscape:current-layer="layer1" />
  <defs
     id="defs823" />
  <g
     inkscape:label="Layer 1"
     inkscape:groupmode="layer"
     id="layer1">
    <path
       style="fill:#ffffff;fill-opacity:0.45;stroke:#000000;stroke-width:0.264583;stroke-linecap:butt;stroke-linejoin:miter;stroke-miterlimit:4;stroke-dasharray:none;stroke-opacity:1"
       d="m 24.582155,1.7195251 c 0,0 -4.288515,2.3563264 -7.257485,2.4977061 L 3.1532405,4.4405465 3.1395841,17.836798 c 0,0 6.126449,7.116106 7.7758769,9.2368 1.649429,2.120692 4.571274,5.655184 4.571274,5.655184 l 1.036784,-2.356327 c 0,0 -1.996703,-5.332326 -2.897763,-8.994646 -0.824213,-3.349975 -1.197394,-7.593892 -1.197394,-7.593892 l 4.896308,0.09425 1.413796,4.100009 c 0,0 0.42591,-1.2528 0.814233,-1.592452 0.493492,-0.418934 1.212207,-0.433986 1.212207,-0.433986 0,0 2.40332,1.86364 2.450446,4.361345 0.04713,2.497707 -1.130903,4.686948 -1.130903,4.686948 l 9.189674,-0.141379 c 0,0 -1.024831,-5.321535 -2.544832,-8.482775 -1.450214,-3.016098 -5.231046,-8.3413961 -5.231046,-8.3413961 1.056768,-1.803386 4.288513,-4.382768 4.288513,-4.382768 h -3.016097 z"
       id="path932"
       sodipodi:nodetypes="ccccsccscccccsccscccc" />
  </g>
</svg>
